{"accessors" : [{"bufferView" : 0, "byteOffset" : 0, "componentType" : 5123, "count" : 222840, "type" : "SCALAR", "max" : [37173], "min" : [0]}, {"bufferView" : 1, "byteOffset" : 0, "componentType" : 5126, "count" : 37174, "type" : "VEC3", "max" : [128.48086547851562, 77.83087921142578, 449.248291015625], "min" : [-119.42097473144531, -75.98345947265625, -0.3664851188659668], "name" : "POSITION"}], "asset" : {"generator" : "Aspose.3D 24.9.1", "version" : "2.0"}, "buffers" : [{"uri" : "data:application/octet-stream;base64,", "byteLength" : 891776}], "bufferViews" : [{"buffer" : 0, "byteOffset" : 0, "byteLength" : 445680, "target" : 34963}, {"buffer" : 0, "byteOffset" : 445684, "byteLength" : 446088, "byteStride" : 12, "target" : 34962}], "meshes" : [{"primitives" : [{"attributes" : {"POSITION" : 1}, "indices" : 0, "mode" : 4}], "name" : ""}], "nodes" : [{"mesh" : 0, "name" : "Group5073"}], "scene" : 0, "scenes" : [{"nodes" : [0]}]}