{"accessors" : [{"bufferView" : 0, "byteOffset" : 0, "componentType" : 5123, "count" : 95328, "type" : "SCALAR", "max" : [15984], "min" : [0]}, {"bufferView" : 1, "byteOffset" : 0, "componentType" : 5126, "count" : 15985, "type" : "VEC3", "max" : [1.1233279705047607, 3.8722879886627197, 1.1233279705047607], "min" : [-1.1233279705047607, 0, -1.1233279705047607], "name" : "POSITION"}, {"bufferView" : 1, "byteOffset" : 12, "componentType" : 5126, "count" : 15985, "type" : "VEC3", "max" : [1.0000042915344238, 1.0000044107437134, 1.0000042915344238], "min" : [-1.0000042915344238, -1.0000017881393433, -1.0000042915344238], "name" : "NORMAL"}], "asset" : {"generator" : "Aspose.3D 24.9.1", "version" : "2.0"}, "buffers" : [{"uri" : "data:application/octet-stream;base64,", "byteLength" : 574304}], "bufferViews" : [{"buffer" : 0, "byteOffset" : 0, "byteLength" : 190656, "target" : 34963}, {"buffer" : 0, "byteOffset" : 190660, "byteLength" : 383640, "byteStride" : 24, "target" : 34962}], "meshes" : [{"primitives" : [{"attributes" : {"POSITION" : 1, "NORMAL" : 2}, "indices" : 0, "mode" : 4}], "name" : ""}], "nodes" : [{"mesh" : 0, "name" : "Beautiful_Pawn"}], "scene" : 0, "scenes" : [{"nodes" : [0]}]}